{
	"asset":{
		"generator":"Khronos glTF Blender I/O v4.3.47",
		"version":"2.0"
	},
	"extensionsUsed":[
		"KHR_materials_specular"
	],
	"scene":0,
	"scenes":[
		{
			"name":"Scene",
			"nodes":[
				15
			]
		}
	],
	"nodes":[
		{
			"name":"Head",
			"rotation":[
				1.7588795975242988e-09,
				-0.07554326951503754,
				2.3216532696324066e-08,
				0.9971425533294678
			],
			"translation":[
				0,
				0.5999999046325684,
				-1.0587911840678754e-22
			]
		},
		{
			"name":"Arm:Left:Lower",
			"rotation":[
				-0.3066921830177307,
				5.3612449590900724e-08,
				3.5826724920084985e-10,
				0.951808750629425
			],
			"scale":[
				1.0000004768371582,
				1.0000004768371582,
				1.0000003576278687
			],
			"translation":[
				-1.1920928955078125e-07,
				0.4000001549720764,
				1.4210854715202004e-14
			]
		},
		{
			"children":[
				1
			],
			"name":"Arm:Left:Upper",
			"rotation":[
				0.9913730025291443,
				0.13107113540172577,
				-7.484657515988147e-08,
				3.792117730938571e-09
			],
			"translation":[
				0.6000000834465027,
				0.3999998867511749,
				-1.0932782679162756e-08
			]
		},
		{
			"name":"Arm:Right:Lower",
			"rotation":[
				-0.38026586174964905,
				4.430662770005256e-08,
				5.4124575932235075e-09,
				0.9248772263526917
			],
			"scale":[
				1.0000001192092896,
				1,
				1
			],
			"translation":[
				0,
				0.39999979734420776,
				7.450580596923828e-08
			]
		},
		{
			"children":[
				3
			],
			"name":"Arm:Right:Upper",
			"rotation":[
				0.7081177234649658,
				-0.30957964062690735,
				0.03865550830960274,
				0.6334315538406372
			],
			"scale":[
				1.0000001192092896,
				1,
				1
			],
			"translation":[
				-0.6000001430511475,
				0.40000006556510925,
				3.2948540251709346e-07
			]
		},
		{
			"children":[
				0,
				2,
				4
			],
			"name":"Chest",
			"rotation":[
				-5.421009803636338e-16,
				-2.3283064365386963e-08,
				-2.3283060812673284e-08,
				1
			],
			"translation":[
				0,
				0.6000000238418579,
				0
			]
		},
		{
			"children":[
				5
			],
			"name":"Body",
			"rotation":[
				0.7071067690849304,
				0,
				0,
				0.7071067690849304
			]
		},
		{
			"name":"Leg:Right:Lower",
			"rotation":[
				0.199184387922287,
				-7.389095912913035e-08,
				1.671307536810218e-08,
				0.9799620509147644
			],
			"scale":[
				1,
				1.0000001192092896,
				1.0000001192092896
			],
			"translation":[
				-9.89530235528946e-10,
				0.599999725818634,
				-2.561137080192566e-09
			]
		},
		{
			"children":[
				7
			],
			"name":"Leg:Right:Upper",
			"rotation":[
				-0.8048326969146729,
				0.01190274115651846,
				0.01904567889869213,
				0.5930767059326172
			],
			"scale":[
				1,
				1,
				0.9999999403953552
			],
			"translation":[
				-0.20000006258487701,
				-2.135358414534494e-07,
				0
			]
		},
		{
			"name":"Leg:Left:Lower",
			"rotation":[
				0.22761170566082,
				-7.651413369558213e-08,
				2.1041387299192138e-08,
				0.9737520217895508
			],
			"scale":[
				1.000000238418579,
				1.0000001192092896,
				1
			],
			"translation":[
				1.30385160446167e-08,
				0.5999997854232788,
				1.1175870895385742e-08
			]
		},
		{
			"children":[
				9
			],
			"name":"Leg:Left:Upper",
			"rotation":[
				-0.5717895030975342,
				-0.07927562296390533,
				-0.021633608266711235,
				0.8162745833396912
			],
			"translation":[
				0.20000006258487701,
				3.3744728966667026e-07,
				0
			]
		},
		{
			"children":[
				6,
				8,
				10
			],
			"name":"center",
			"translation":[
				0,
				0,
				1.6119829416275024
			]
		},
		{
			"children":[
				11
			],
			"name":"MAIN",
			"rotation":[
				-0.7071067690849304,
				0,
				0,
				0.7071067690849304
			],
			"translation":[
				0,
				-0.3926849365234375,
				0
			]
		},
		{
			"mesh":0,
			"name":"SimpleSlimPlayer.Body.Layer1",
			"skin":0
		},
		{
			"mesh":1,
			"name":"SimpleSlimPlayer.Body.Layer2",
			"skin":0
		},
		{
			"children":[
				13,
				14,
				12
			],
			"name":"SimpleSlimPlayer.arma",
			"scale":[
				0.6203539967536926,
				0.6203539967536926,
				0.6203539967536926
			]
		}
	],
	"materials":[
		{
			"alphaMode":"BLEND",
			"doubleSided":true,
			"extensions":{
				"KHR_materials_specular":{
					"specularFactor":0
				}
			},
			"name":"char.002",
			"pbrMetallicRoughness":{
				"baseColorFactor":[
					0.5,
					0.5,
					0.5,
					1
				],
				"baseColorTexture":{
					"index":0
				},
				"metallicFactor":0,
				"roughnessFactor":0.699999988079071
			}
		},
		{
			"alphaMode":"BLEND",
			"doubleSided":true,
			"extensions":{
				"KHR_materials_specular":{
					"specularFactor":0
				}
			},
			"name":"char_alpha.002",
			"pbrMetallicRoughness":{
				"baseColorFactor":[
					0.5,
					0.5,
					0.5,
					1
				],
				"baseColorTexture":{
					"index":1
				},
				"metallicFactor":0,
				"roughnessFactor":0.699999988079071
			}
		}
	],
	"meshes":[
		{
			"name":"Cube.001",
			"primitives":[
				{
					"attributes":{
						"POSITION":0,
						"NORMAL":1,
						"TEXCOORD_0":2,
						"JOINTS_0":3,
						"WEIGHTS_0":4
					},
					"indices":5,
					"material":0
				}
			]
		},
		{
			"name":"Cube.005",
			"primitives":[
				{
					"attributes":{
						"POSITION":7,
						"NORMAL":8,
						"TEXCOORD_0":9,
						"JOINTS_0":10,
						"WEIGHTS_0":11
					},
					"indices":12,
					"material":1
				}
			]
		}
	],
	"textures":[
		{
			"sampler":0,
			"source":0
		},
		{
			"sampler":0,
			"source":0
		}
	],
	"images":[
		{
			"mimeType":"image/png",
			"name":"tmxx",
			"uri":"tmxx.png"
		}
	],
	"skins":[
		{
			"inverseBindMatrices":6,
			"joints":[
				12,
				11,
				6,
				5,
				0,
				2,
				1,
				4,
				3,
				8,
				7,
				10,
				9
			],
			"name":"SimpleSlimPlayer.arma"
		}
	],
	"accessors":[
		{
			"bufferView":0,
			"componentType":5126,
			"count":2665,
			"max":[
				0.4343675374984741,
				1.997973918914795,
				0.24814198911190033
			],
			"min":[
				-0.43425682187080383,
				0.011973707005381584,
				-0.248141810297966
			],
			"type":"VEC3"
		},
		{
			"bufferView":1,
			"componentType":5126,
			"count":2665,
			"type":"VEC3"
		},
		{
			"bufferView":2,
			"componentType":5126,
			"count":2665,
			"type":"VEC2"
		},
		{
			"bufferView":3,
			"componentType":5121,
			"count":2665,
			"type":"VEC4"
		},
		{
			"bufferView":4,
			"componentType":5126,
			"count":2665,
			"type":"VEC4"
		},
		{
			"bufferView":5,
			"componentType":5123,
			"count":12096,
			"type":"SCALAR"
		},
		{
			"bufferView":6,
			"componentType":5126,
			"count":13,
			"type":"MAT4"
		},
		{
			"bufferView":7,
			"componentType":5126,
			"count":2660,
			"max":[
				0.43746909499168396,
				2.01937198638916,
				0.26667696237564087
			],
			"min":[
				-0.4373585879802704,
				0.004529443569481373,
				-0.2687835693359375
			],
			"type":"VEC3"
		},
		{
			"bufferView":8,
			"componentType":5126,
			"count":2660,
			"type":"VEC3"
		},
		{
			"bufferView":9,
			"componentType":5126,
			"count":2660,
			"type":"VEC2"
		},
		{
			"bufferView":10,
			"componentType":5121,
			"count":2660,
			"type":"VEC4"
		},
		{
			"bufferView":11,
			"componentType":5126,
			"count":2660,
			"type":"VEC4"
		},
		{
			"bufferView":12,
			"componentType":5123,
			"count":12096,
			"type":"SCALAR"
		}
	],
	"bufferViews":[
		{
			"buffer":0,
			"byteLength":31980,
			"byteOffset":0,
			"target":34962
		},
		{
			"buffer":0,
			"byteLength":31980,
			"byteOffset":31980,
			"target":34962
		},
		{
			"buffer":0,
			"byteLength":21320,
			"byteOffset":63960,
			"target":34962
		},
		{
			"buffer":0,
			"byteLength":10660,
			"byteOffset":85280,
			"target":34962
		},
		{
			"buffer":0,
			"byteLength":42640,
			"byteOffset":95940,
			"target":34962
		},
		{
			"buffer":0,
			"byteLength":24192,
			"byteOffset":138580,
			"target":34963
		},
		{
			"buffer":0,
			"byteLength":832,
			"byteOffset":162772
		},
		{
			"buffer":0,
			"byteLength":31920,
			"byteOffset":163604,
			"target":34962
		},
		{
			"buffer":0,
			"byteLength":31920,
			"byteOffset":195524,
			"target":34962
		},
		{
			"buffer":0,
			"byteLength":21280,
			"byteOffset":227444,
			"target":34962
		},
		{
			"buffer":0,
			"byteLength":10640,
			"byteOffset":248724,
			"target":34962
		},
		{
			"buffer":0,
			"byteLength":42560,
			"byteOffset":259364,
			"target":34962
		},
		{
			"buffer":0,
			"byteLength":24192,
			"byteOffset":301924,
			"target":34963
		}
	],
	"samplers":[
		{
			"magFilter":9728,
			"minFilter":9984
		}
	],
	"buffers":[
		{
			"byteLength":326116,
			"uri":"tmxx.bin"
		}
	]
}
