{
	"asset":{
		"generator":"Khronos glTF Blender I/O v4.3.47",
		"version":"2.0"
	},
	"extensionsUsed":[
		"KHR_materials_specular"
	],
	"scene":0,
	"scenes":[
		{
			"name":"Scene",
			"nodes":[
				30
			]
		}
	],
	"nodes":[
		{
			"name":"Ear-R",
			"rotation":[
				1.428163329819654e-07,
				0.70710688829422,
				0.7071066498756409,
				5.738118247222701e-08
			],
			"translation":[
				-0.24665987491607666,
				0.2158273309469223,
				-0.12332998216152191
			]
		},
		{
			"name":"Ear-L",
			"rotation":[
				1.428163329819654e-07,
				0.70710688829422,
				0.7071066498756409,
				5.738118247222701e-08
			],
			"translation":[
				0.24665986001491547,
				0.21582725644111633,
				-0.12333004921674728
			]
		},
		{
			"name":"Eye-L",
			"rotation":[
				2.220446049250313e-16,
				1.1435297153639112e-14,
				-3.725287189837445e-09,
				1
			],
			"translation":[
				0.15812931954860687,
				0.3576567471027374,
				-0.027153773233294487
			]
		},
		{
			"name":"Eye-R",
			"rotation":[
				2.220446049250313e-16,
				1.1435297153639112e-14,
				-3.725287189837445e-09,
				1
			],
			"translation":[
				-0.21162675321102142,
				0.3576568067073822,
				-0.030832458287477493
			]
		},
		{
			"children":[
				0,
				1,
				2,
				3
			],
			"name":"Head",
			"rotation":[
				4.473446335584441e-10,
				4.382214591203137e-09,
				0.07096396386623383,
				0.9974789023399353
			],
			"translation":[
				-1.8622296593662213e-08,
				0.4933197796344757,
				-0.12332989275455475
			]
		},
		{
			"name":"Leg:FL:Bend",
			"rotation":[
				-0.0025884497445076704,
				-7.043346528234906e-08,
				-5.2334683253718595e-09,
				0.9999966621398926
			],
			"translation":[
				1.6164465321821808e-09,
				0.18499493598937988,
				-1.0151920193379738e-08
			]
		},
		{
			"children":[
				5
			],
			"name":"Leg:FL",
			"rotation":[
				-6.232846061493547e-08,
				-0.708021342754364,
				-0.7061910033226013,
				5.542355197007964e-08
			],
			"scale":[
				1,
				1.000000238418579,
				1
			],
			"translation":[
				0.18499493598937988,
				0.3083248436450958,
				0.24665983021259308
			]
		},
		{
			"name":"Leg:FR:Bend",
			"rotation":[
				-0.0025884497445076704,
				-7.043346528234906e-08,
				-5.2334683253718595e-09,
				0.9999966621398926
			],
			"translation":[
				1.6164465321821808e-09,
				0.18499493598937988,
				-1.3829636102968834e-08
			]
		},
		{
			"children":[
				7
			],
			"name":"Leg:FR",
			"rotation":[
				-6.232846061493547e-08,
				-0.708021342754364,
				-0.7061910033226013,
				5.542355197007964e-08
			],
			"scale":[
				1,
				1.000000238418579,
				1
			],
			"translation":[
				-0.1849948763847351,
				0.3083248436450958,
				0.24665988981723785
			]
		},
		{
			"children":[
				4,
				6,
				8
			],
			"name":"Body:Bend",
			"rotation":[
				-1.443134500789256e-09,
				1.0587911840678754e-22,
				2.1790728572905748e-16,
				1
			],
			"translation":[
				-4.810447808827349e-16,
				0.4933197498321533,
				-4.480038118259699e-09
			]
		},
		{
			"name":"Leg:BL:Bend",
			"rotation":[
				0.002588450675830245,
				-7.045962036045239e-08,
				-4.868752956355138e-09,
				0.9999966621398926
			],
			"scale":[
				1,
				1,
				1.0000001192092896
			],
			"translation":[
				2.2303641600274204e-08,
				0.18499496579170227,
				-9.100406650475179e-09
			]
		},
		{
			"children":[
				10
			],
			"name":"Leg:BL",
			"rotation":[
				-6.452596323924809e-08,
				-0.7061911225318909,
				-0.7080212831497192,
				5.26860617355851e-08
			],
			"scale":[
				1,
				1.0000003576278687,
				0.9999997019767761
			],
			"translation":[
				0.18499493598937988,
				0.06166498363018036,
				0.24665986001491547
			]
		},
		{
			"name":"Leg:BR:Bend",
			"rotation":[
				0.00258845929056406,
				-7.045960614959768e-08,
				-4.868764502674594e-09,
				0.9999966621398926
			],
			"translation":[
				-3.7301020938684815e-08,
				0.1849949061870575,
				-9.526056388153847e-09
			]
		},
		{
			"children":[
				12
			],
			"name":"Leg:BR",
			"rotation":[
				-6.452599876638487e-08,
				-0.7061910629272461,
				-0.7080212831497192,
				5.2686043972016705e-08
			],
			"scale":[
				1,
				1.0000003576278687,
				0.9999997615814209
			],
			"translation":[
				-0.1849948763847351,
				0.06166498363018036,
				0.24665990471839905
			]
		},
		{
			"children":[
				9,
				11,
				13
			],
			"name":"Body",
			"rotation":[
				0.7071067690849304,
				-5.338507591545749e-08,
				-5.338507591545749e-08,
				0.7071067690849304
			],
			"translation":[
				-2.1907799114128133e-16,
				0.6166496872901917,
				-0.43165475130081177
			]
		},
		{
			"name":"Leg-L:IK-Pole",
			"rotation":[
				-5.3385125653448995e-08,
				-0.7071067690849304,
				-0.7071067690849304,
				5.338507591545749e-08
			],
			"translation":[
				5.962320415164868e-08,
				-0.1849949061870575,
				0.43165484070777893
			]
		},
		{
			"children":[
				15
			],
			"name":"Leg:FL:IK",
			"rotation":[
				-7.549789415861596e-08,
				-3.0814879110195774e-33,
				-1,
				0
			],
			"translation":[
				0.1849949061870575,
				-5.960464477539063e-08,
				0.369989812374115
			]
		},
		{
			"name":"Leg-R:IK-Pole",
			"rotation":[
				-5.3385125653448995e-08,
				-0.7071067690849304,
				-0.7071067690849304,
				5.338507591545749e-08
			],
			"translation":[
				5.962320415164868e-08,
				-0.1849949061870575,
				0.43165484070777893
			]
		},
		{
			"children":[
				17
			],
			"name":"Leg:FR:IK",
			"rotation":[
				-7.549789415861596e-08,
				-3.0814879110195774e-33,
				-1,
				0
			],
			"translation":[
				-0.1849949061870575,
				-5.960464477539063e-08,
				0.369989812374115
			]
		},
		{
			"name":"Leg:BL:Back-IK",
			"rotation":[
				5.338507591545749e-08,
				-0.7071067690849304,
				0.7071067690849304,
				5.338507591545749e-08
			],
			"translation":[
				-6.325743129309558e-08,
				-0.1849949061870575,
				-0.43165481090545654
			]
		},
		{
			"children":[
				19
			],
			"name":"Leg:BL:IK",
			"rotation":[
				-7.549789415861596e-08,
				-3.0814879110195774e-33,
				-1,
				0
			],
			"translation":[
				0.1849949061870575,
				2.0816681711721685e-17,
				-0.3699897825717926
			]
		},
		{
			"name":"Leg:BR:Back-IK",
			"rotation":[
				5.338507591545749e-08,
				-0.7071067690849304,
				0.7071067690849304,
				5.338507591545749e-08
			],
			"translation":[
				-6.325743129309558e-08,
				-0.1849949061870575,
				-0.43165481090545654
			]
		},
		{
			"children":[
				21
			],
			"name":"Leg:BR:IK",
			"rotation":[
				-7.549789415861596e-08,
				-3.0814879110195774e-33,
				-1,
				0
			],
			"translation":[
				-0.1849949061870575,
				-2.0816681711721685e-17,
				-0.3699897825717926
			]
		},
		{
			"children":[
				14,
				16,
				18,
				20,
				22
			],
			"name":"MAIN",
			"rotation":[
				9.24446520242667e-33,
				1.1102232893229526e-16,
				-5.551115123125783e-17,
				1
			],
			"translation":[
				2.4646273837958027e-16,
				-0.6166496872901917,
				0.43165475130081177
			]
		},
		{
			"mesh":0,
			"name":"pig.Body",
			"skin":0
		},
		{
			"mesh":1,
			"name":"pig.Head",
			"skin":0
		},
		{
			"mesh":2,
			"name":"pig.Leg-BL",
			"skin":0
		},
		{
			"mesh":3,
			"name":"pig.Leg-BR",
			"skin":0
		},
		{
			"mesh":4,
			"name":"pig.Leg-FL",
			"skin":0
		},
		{
			"mesh":5,
			"name":"pig.Leg-FR",
			"skin":0
		},
		{
			"children":[
				24,
				25,
				26,
				27,
				28,
				29,
				23
			],
			"name":"pig.arma",
			"translation":[
				0,
				0.6214789152145386,
				-0.34500303864479065
			]
		}
	],
	"materials":[
		{
			"alphaMode":"BLEND",
			"doubleSided":true,
			"extensions":{
				"KHR_materials_specular":{
					"specularFactor":0
				}
			},
			"name":"Pig",
			"pbrMetallicRoughness":{
				"baseColorFactor":[
					0.5,
					0.5,
					0.5,
					1
				],
				"baseColorTexture":{
					"index":0
				},
				"metallicFactor":0,
				"roughnessFactor":0.699999988079071
			}
		}
	],
	"meshes":[
		{
			"name":"Cube.007",
			"primitives":[
				{
					"attributes":{
						"POSITION":0,
						"NORMAL":1,
						"TEXCOORD_0":2,
						"JOINTS_0":3,
						"WEIGHTS_0":4
					},
					"indices":5,
					"material":0
				}
			]
		},
		{
			"extras":{
				"targetNames":[
					"Mouth:Open",
					"Pig:Snort",
					"Blink"
				]
			},
			"name":"Cube.008",
			"primitives":[
				{
					"attributes":{
						"POSITION":7,
						"NORMAL":8,
						"TEXCOORD_0":9,
						"JOINTS_0":10,
						"WEIGHTS_0":11
					},
					"indices":12,
					"material":0,
					"targets":[
						{
							"POSITION":13,
							"NORMAL":14
						},
						{
							"POSITION":15,
							"NORMAL":16
						},
						{
							"POSITION":17,
							"NORMAL":18
						}
					]
				}
			],
			"weights":[
				0,
				0,
				0
			]
		},
		{
			"extras":{
				"targetNames":[
					"Key 1"
				]
			},
			"name":"Cube.002",
			"primitives":[
				{
					"attributes":{
						"POSITION":19,
						"NORMAL":20,
						"TEXCOORD_0":21,
						"JOINTS_0":22,
						"WEIGHTS_0":23
					},
					"indices":24,
					"material":0,
					"targets":[
						{
							"POSITION":25,
							"NORMAL":26
						}
					]
				}
			],
			"weights":[
				0.003292542416602373
			]
		},
		{
			"extras":{
				"targetNames":[
					"Bend"
				]
			},
			"name":"Cube.004",
			"primitives":[
				{
					"attributes":{
						"POSITION":27,
						"NORMAL":28,
						"TEXCOORD_0":29,
						"JOINTS_0":30,
						"WEIGHTS_0":31
					},
					"indices":24,
					"material":0,
					"targets":[
						{
							"POSITION":32,
							"NORMAL":33
						}
					]
				}
			],
			"weights":[
				0.003292543115094304
			]
		},
		{
			"extras":{
				"targetNames":[
					"Bend"
				]
			},
			"name":"Cube.006",
			"primitives":[
				{
					"attributes":{
						"POSITION":34,
						"NORMAL":35,
						"TEXCOORD_0":36,
						"JOINTS_0":37,
						"WEIGHTS_0":38
					},
					"indices":24,
					"material":0,
					"targets":[
						{
							"POSITION":39,
							"NORMAL":40
						}
					]
				}
			],
			"weights":[
				0.00329253519885242
			]
		},
		{
			"extras":{
				"targetNames":[
					"Bend"
				]
			},
			"name":"Cube.003",
			"primitives":[
				{
					"attributes":{
						"POSITION":41,
						"NORMAL":42,
						"TEXCOORD_0":43,
						"JOINTS_0":44,
						"WEIGHTS_0":45
					},
					"indices":24,
					"material":0,
					"targets":[
						{
							"POSITION":46,
							"NORMAL":47
						}
					]
				}
			],
			"weights":[
				0.00329253519885242
			]
		}
	],
	"textures":[
		{
			"sampler":0,
			"source":0
		}
	],
	"images":[
		{
			"mimeType":"image/png",
			"name":"Pigtexture",
			"uri":"Pigtexture.png"
		}
	],
	"skins":[
		{
			"inverseBindMatrices":6,
			"joints":[
				23,
				14,
				9,
				4,
				0,
				1,
				2,
				3,
				6,
				5,
				8,
				7,
				11,
				10,
				13,
				12,
				16,
				15,
				18,
				17,
				20,
				19,
				22,
				21
			],
			"name":"pig.arma"
		}
	],
	"accessors":[
		{
			"bufferView":0,
			"componentType":5126,
			"count":455,
			"max":[
				0.3083249628543854,
				0.8681387901306152,
				0.6416367888450623
			],
			"min":[
				-0.308324933052063,
				0.3748190402984619,
				-0.4066679775714874
			],
			"type":"VEC3"
		},
		{
			"bufferView":1,
			"componentType":5126,
			"count":455,
			"type":"VEC3"
		},
		{
			"bufferView":2,
			"componentType":5126,
			"count":455,
			"type":"VEC2"
		},
		{
			"bufferView":3,
			"componentType":5121,
			"count":455,
			"type":"VEC4"
		},
		{
			"bufferView":4,
			"componentType":5126,
			"count":455,
			"type":"VEC4"
		},
		{
			"bufferView":5,
			"componentType":5123,
			"count":2004,
			"type":"SCALAR"
		},
		{
			"bufferView":6,
			"componentType":5126,
			"count":24,
			"type":"MAT4"
		},
		{
			"bufferView":7,
			"componentType":5126,
			"count":1062,
			"max":[
				0.27749237418174744,
				0.991468608379364,
				1.073291301727295
			],
			"min":[
				-0.27749234437942505,
				0.4981488883495331,
				0.5183064937591553
			],
			"type":"VEC3"
		},
		{
			"bufferView":8,
			"componentType":5126,
			"count":1062,
			"type":"VEC3"
		},
		{
			"bufferView":9,
			"componentType":5126,
			"count":1062,
			"type":"VEC2"
		},
		{
			"bufferView":10,
			"componentType":5121,
			"count":1062,
			"type":"VEC4"
		},
		{
			"bufferView":11,
			"componentType":5126,
			"count":1062,
			"type":"VEC4"
		},
		{
			"bufferView":12,
			"componentType":5123,
			"count":3228,
			"type":"SCALAR"
		},
		{
			"componentType":5126,
			"count":1062,
			"max":[
				5.960464477539063e-08,
				0,
				0
			],
			"min":[
				0,
				-0.061664968729019165,
				0
			],
			"sparse":{
				"count":52,
				"indices":{
					"bufferView":13,
					"componentType":5123
				},
				"values":{
					"bufferView":14
				}
			},
			"type":"VEC3"
		},
		{
			"componentType":5126,
			"count":1062,
			"sparse":{
				"count":28,
				"indices":{
					"bufferView":15,
					"componentType":5123
				},
				"values":{
					"bufferView":16
				}
			},
			"type":"VEC3"
		},
		{
			"componentType":5126,
			"count":1062,
			"max":[
				0,
				0,
				0.030832529067993164
			],
			"min":[
				0,
				0,
				0
			],
			"sparse":{
				"count":53,
				"indices":{
					"bufferView":17,
					"componentType":5123
				},
				"values":{
					"bufferView":18
				}
			},
			"type":"VEC3"
		},
		{
			"componentType":5126,
			"count":1062,
			"sparse":{
				"count":1,
				"indices":{
					"bufferView":19,
					"componentType":5121
				},
				"values":{
					"bufferView":20
				}
			},
			"type":"VEC3"
		},
		{
			"componentType":5126,
			"count":1062,
			"max":[
				0,
				0.03083246946334839,
				1.1920928955078125e-07
			],
			"min":[
				0,
				-0.03083246946334839,
				0
			],
			"sparse":{
				"count":56,
				"indices":{
					"bufferView":21,
					"componentType":5123
				},
				"values":{
					"bufferView":22
				}
			},
			"type":"VEC3"
		},
		{
			"componentType":5126,
			"count":1062,
			"sparse":{
				"count":64,
				"indices":{
					"bufferView":23,
					"componentType":5123
				},
				"values":{
					"bufferView":24
				}
			},
			"type":"VEC3"
		},
		{
			"bufferView":25,
			"componentType":5126,
			"count":32,
			"max":[
				0.3083249628543854,
				0.3748190701007843,
				-0.16000783443450928
			],
			"min":[
				0.061664879322052,
				0.004829305689781904,
				-0.40666818618774414
			],
			"type":"VEC3"
		},
		{
			"bufferView":26,
			"componentType":5126,
			"count":32,
			"type":"VEC3"
		},
		{
			"bufferView":27,
			"componentType":5126,
			"count":32,
			"type":"VEC2"
		},
		{
			"bufferView":28,
			"componentType":5121,
			"count":32,
			"type":"VEC4"
		},
		{
			"bufferView":29,
			"componentType":5126,
			"count":32,
			"type":"VEC4"
		},
		{
			"bufferView":30,
			"componentType":5123,
			"count":60,
			"type":"SCALAR"
		},
		{
			"componentType":5126,
			"count":32,
			"max":[
				0,
				0.12332990765571594,
				0
			],
			"min":[
				0,
				-0.12332991510629654,
				0
			],
			"sparse":{
				"count":8,
				"indices":{
					"bufferView":31,
					"componentType":5121
				},
				"values":{
					"bufferView":32
				}
			},
			"type":"VEC3"
		},
		{
			"componentType":5126,
			"count":32,
			"sparse":{
				"count":1,
				"indices":{
					"bufferView":33,
					"componentType":5121
				},
				"values":{
					"bufferView":34
				}
			},
			"type":"VEC3"
		},
		{
			"bufferView":35,
			"componentType":5126,
			"count":32,
			"max":[
				-0.061664849519729614,
				0.3748190701007843,
				-0.16000783443450928
			],
			"min":[
				-0.308324933052063,
				0.004829305689781904,
				-0.40666818618774414
			],
			"type":"VEC3"
		},
		{
			"bufferView":36,
			"componentType":5126,
			"count":32,
			"type":"VEC3"
		},
		{
			"bufferView":37,
			"componentType":5126,
			"count":32,
			"type":"VEC2"
		},
		{
			"bufferView":38,
			"componentType":5121,
			"count":32,
			"type":"VEC4"
		},
		{
			"bufferView":39,
			"componentType":5126,
			"count":32,
			"type":"VEC4"
		},
		{
			"componentType":5126,
			"count":32,
			"max":[
				0,
				0.12332990765571594,
				0
			],
			"min":[
				0,
				-0.12332991510629654,
				0
			],
			"sparse":{
				"count":8,
				"indices":{
					"bufferView":40,
					"componentType":5121
				},
				"values":{
					"bufferView":41
				}
			},
			"type":"VEC3"
		},
		{
			"componentType":5126,
			"count":32,
			"sparse":{
				"count":1,
				"indices":{
					"bufferView":42,
					"componentType":5121
				},
				"values":{
					"bufferView":43
				}
			},
			"type":"VEC3"
		},
		{
			"bufferView":44,
			"componentType":5126,
			"count":32,
			"max":[
				0.3083249628543854,
				0.3748190402984619,
				0.5799718499183655
			],
			"min":[
				0.061664879322052,
				0.0048292758874595165,
				0.3333114683628082
			],
			"type":"VEC3"
		},
		{
			"bufferView":45,
			"componentType":5126,
			"count":32,
			"type":"VEC3"
		},
		{
			"bufferView":46,
			"componentType":5126,
			"count":32,
			"type":"VEC2"
		},
		{
			"bufferView":47,
			"componentType":5121,
			"count":32,
			"type":"VEC4"
		},
		{
			"bufferView":48,
			"componentType":5126,
			"count":32,
			"type":"VEC4"
		},
		{
			"componentType":5126,
			"count":32,
			"max":[
				0,
				0.12332993745803833,
				0
			],
			"min":[
				0,
				-0.12332993000745773,
				0
			],
			"sparse":{
				"count":8,
				"indices":{
					"bufferView":49,
					"componentType":5121
				},
				"values":{
					"bufferView":50
				}
			},
			"type":"VEC3"
		},
		{
			"componentType":5126,
			"count":32,
			"sparse":{
				"count":1,
				"indices":{
					"bufferView":51,
					"componentType":5121
				},
				"values":{
					"bufferView":52
				}
			},
			"type":"VEC3"
		},
		{
			"bufferView":53,
			"componentType":5126,
			"count":32,
			"max":[
				-0.061664849519729614,
				0.3748190402984619,
				0.5799718499183655
			],
			"min":[
				-0.308324933052063,
				0.0048292758874595165,
				0.3333114683628082
			],
			"type":"VEC3"
		},
		{
			"bufferView":54,
			"componentType":5126,
			"count":32,
			"type":"VEC3"
		},
		{
			"bufferView":55,
			"componentType":5126,
			"count":32,
			"type":"VEC2"
		},
		{
			"bufferView":56,
			"componentType":5121,
			"count":32,
			"type":"VEC4"
		},
		{
			"bufferView":57,
			"componentType":5126,
			"count":32,
			"type":"VEC4"
		},
		{
			"componentType":5126,
			"count":32,
			"max":[
				0,
				0.12332993745803833,
				0
			],
			"min":[
				0,
				-0.12332993000745773,
				0
			],
			"sparse":{
				"count":8,
				"indices":{
					"bufferView":58,
					"componentType":5121
				},
				"values":{
					"bufferView":59
				}
			},
			"type":"VEC3"
		},
		{
			"componentType":5126,
			"count":32,
			"sparse":{
				"count":1,
				"indices":{
					"bufferView":60,
					"componentType":5121
				},
				"values":{
					"bufferView":61
				}
			},
			"type":"VEC3"
		}
	],
	"bufferViews":[
		{
			"buffer":0,
			"byteLength":5460,
			"byteOffset":0,
			"target":34962
		},
		{
			"buffer":0,
			"byteLength":5460,
			"byteOffset":5460,
			"target":34962
		},
		{
			"buffer":0,
			"byteLength":3640,
			"byteOffset":10920,
			"target":34962
		},
		{
			"buffer":0,
			"byteLength":1820,
			"byteOffset":14560,
			"target":34962
		},
		{
			"buffer":0,
			"byteLength":7280,
			"byteOffset":16380,
			"target":34962
		},
		{
			"buffer":0,
			"byteLength":4008,
			"byteOffset":23660,
			"target":34963
		},
		{
			"buffer":0,
			"byteLength":1536,
			"byteOffset":27668
		},
		{
			"buffer":0,
			"byteLength":12744,
			"byteOffset":29204,
			"target":34962
		},
		{
			"buffer":0,
			"byteLength":12744,
			"byteOffset":41948,
			"target":34962
		},
		{
			"buffer":0,
			"byteLength":8496,
			"byteOffset":54692,
			"target":34962
		},
		{
			"buffer":0,
			"byteLength":4248,
			"byteOffset":63188,
			"target":34962
		},
		{
			"buffer":0,
			"byteLength":16992,
			"byteOffset":67436,
			"target":34962
		},
		{
			"buffer":0,
			"byteLength":6456,
			"byteOffset":84428,
			"target":34963
		},
		{
			"buffer":0,
			"byteLength":104,
			"byteOffset":90884
		},
		{
			"buffer":0,
			"byteLength":624,
			"byteOffset":90988
		},
		{
			"buffer":0,
			"byteLength":56,
			"byteOffset":91612
		},
		{
			"buffer":0,
			"byteLength":336,
			"byteOffset":91668
		},
		{
			"buffer":0,
			"byteLength":106,
			"byteOffset":92004
		},
		{
			"buffer":0,
			"byteLength":636,
			"byteOffset":92112
		},
		{
			"buffer":0,
			"byteLength":1,
			"byteOffset":92748
		},
		{
			"buffer":0,
			"byteLength":12,
			"byteOffset":92752
		},
		{
			"buffer":0,
			"byteLength":112,
			"byteOffset":92764
		},
		{
			"buffer":0,
			"byteLength":672,
			"byteOffset":92876
		},
		{
			"buffer":0,
			"byteLength":128,
			"byteOffset":93548
		},
		{
			"buffer":0,
			"byteLength":768,
			"byteOffset":93676
		},
		{
			"buffer":0,
			"byteLength":384,
			"byteOffset":94444,
			"target":34962
		},
		{
			"buffer":0,
			"byteLength":384,
			"byteOffset":94828,
			"target":34962
		},
		{
			"buffer":0,
			"byteLength":256,
			"byteOffset":95212,
			"target":34962
		},
		{
			"buffer":0,
			"byteLength":128,
			"byteOffset":95468,
			"target":34962
		},
		{
			"buffer":0,
			"byteLength":512,
			"byteOffset":95596,
			"target":34962
		},
		{
			"buffer":0,
			"byteLength":120,
			"byteOffset":96108,
			"target":34963
		},
		{
			"buffer":0,
			"byteLength":8,
			"byteOffset":96228
		},
		{
			"buffer":0,
			"byteLength":96,
			"byteOffset":96236
		},
		{
			"buffer":0,
			"byteLength":1,
			"byteOffset":96332
		},
		{
			"buffer":0,
			"byteLength":12,
			"byteOffset":96336
		},
		{
			"buffer":0,
			"byteLength":384,
			"byteOffset":96348,
			"target":34962
		},
		{
			"buffer":0,
			"byteLength":384,
			"byteOffset":96732,
			"target":34962
		},
		{
			"buffer":0,
			"byteLength":256,
			"byteOffset":97116,
			"target":34962
		},
		{
			"buffer":0,
			"byteLength":128,
			"byteOffset":97372,
			"target":34962
		},
		{
			"buffer":0,
			"byteLength":512,
			"byteOffset":97500,
			"target":34962
		},
		{
			"buffer":0,
			"byteLength":8,
			"byteOffset":98012
		},
		{
			"buffer":0,
			"byteLength":96,
			"byteOffset":98020
		},
		{
			"buffer":0,
			"byteLength":1,
			"byteOffset":98116
		},
		{
			"buffer":0,
			"byteLength":12,
			"byteOffset":98120
		},
		{
			"buffer":0,
			"byteLength":384,
			"byteOffset":98132,
			"target":34962
		},
		{
			"buffer":0,
			"byteLength":384,
			"byteOffset":98516,
			"target":34962
		},
		{
			"buffer":0,
			"byteLength":256,
			"byteOffset":98900,
			"target":34962
		},
		{
			"buffer":0,
			"byteLength":128,
			"byteOffset":99156,
			"target":34962
		},
		{
			"buffer":0,
			"byteLength":512,
			"byteOffset":99284,
			"target":34962
		},
		{
			"buffer":0,
			"byteLength":8,
			"byteOffset":99796
		},
		{
			"buffer":0,
			"byteLength":96,
			"byteOffset":99804
		},
		{
			"buffer":0,
			"byteLength":1,
			"byteOffset":99900
		},
		{
			"buffer":0,
			"byteLength":12,
			"byteOffset":99904
		},
		{
			"buffer":0,
			"byteLength":384,
			"byteOffset":99916,
			"target":34962
		},
		{
			"buffer":0,
			"byteLength":384,
			"byteOffset":100300,
			"target":34962
		},
		{
			"buffer":0,
			"byteLength":256,
			"byteOffset":100684,
			"target":34962
		},
		{
			"buffer":0,
			"byteLength":128,
			"byteOffset":100940,
			"target":34962
		},
		{
			"buffer":0,
			"byteLength":512,
			"byteOffset":101068,
			"target":34962
		},
		{
			"buffer":0,
			"byteLength":8,
			"byteOffset":101580
		},
		{
			"buffer":0,
			"byteLength":96,
			"byteOffset":101588
		},
		{
			"buffer":0,
			"byteLength":1,
			"byteOffset":101684
		},
		{
			"buffer":0,
			"byteLength":12,
			"byteOffset":101688
		}
	],
	"samplers":[
		{
			"magFilter":9728,
			"minFilter":9984
		}
	],
	"buffers":[
		{
			"byteLength":101700,
			"uri":"model.bin"
		}
	]
}
