{
  "accessors": [
    {
      "bufferView": 3,
      "componentType": 5126,
      "count": 4360,
      "max": [
        1.091248869895935,
        7.091248512268066,
        2.0456244945526123
      ],
      "min": [
        -1.091248869895935,
        -1.1368727684020996,
        -2.045625925064087
      ],
      "type": "VEC3"
    },
    {
      "bufferView": 3,
      "byteOffset": 52320,
      "componentType": 5126,
      "count": 4360,
      "max": [
        1.0,
        1.0,
        1.0
      ],
      "min": [
        -1.0,
        -1.0,
        -1.0
      ],
      "type": "VEC3"
    },
    {
      "bufferView": 2,
      "componentType": 5126,
      "count": 4360,
      "max": [
        0.9999997019767761,
        0.9999999403953552
      ],
      "min": [
        1.7881393432617188e-07,
        2.384185791015625e-07
      ],
      "type": "VEC2"
    },
    {
      "bufferView": 1,
      "componentType": 5125,
      "count": 19584,
      "type": "SCALAR"
    },
    {
      "bufferView": 5,
      "componentType": 5126,
      "count": 43,
      "max": [
        100.0,
        0.7250354290008545,
        0.6887116432189941,
        0.0,
        0.6480305194854736,
        100.00001525878906,
        0.725035548210144,
        0.0,
        0.9999998211860657,
        6.145460247353185e-07,
        100.0,
        0.0,
        1.5000001192092896,
        4.862990856170654,
        1.5,
        1.0
      ],
      "min": [
        1.6398017521623842e-07,
        -0.02097451314330101,
        -0.7616148591041565,
        0.0,
        -0.02097451686859131,
        -0.9999428987503052,
        -0.6480305194854736,
        0.0,
        -1.0000003576278687,
        -1.9428121333930903e-07,
        -1.0000001192092896,
        0.0,
        -1.499999761581421,
        -5.136557579040527,
        -1.7305617332458496,
        1.0
      ],
      "type": "MAT4"
    },
    {
      "bufferView": 0,
      "componentType": 5123,
      "count": 4360,
      "type": "VEC4"
    },
    {
      "bufferView": 4,
      "componentType": 5126,
      "count": 4360,
      "max": [
        1.0,
        0.46662822365760803,
        0.01051586214452982,
        0.0
      ],
      "min": [
        0.5333718061447144,
        0.0,
        0.0,
        0.0
      ],
      "type": "VEC4"
    }
  ],
  "asset": {
    "extras": {
      "author": "Blender3D (https://sketchfab.com/Blender3D)",
      "license": "CC-BY-4.0 (http://creativecommons.org/licenses/by/4.0/)",
      "source": "https://sketchfab.com/3d-models/universal-steve-apply-any-skin-4992cf5e736f4c5db9a736e97a80878c",
      "title": "Universal Steve ( Apply Any Skin)"
    },
    "generator": "Sketchfab-12.78.0",
    "version": "2.0"
  },
  "bufferViews": [
    {
      "buffer": 0,
      "byteLength": 34880,
      "byteStride": 8,
      "name": "shortBufferViews",
      "target": 34962
    },
    {
      "buffer": 0,
      "byteLength": 78336,
      "byteOffset": 34880,
      "name": "floatBufferViews",
      "target": 34963
    },
    {
      "buffer": 0,
      "byteLength": 34880,
      "byteOffset": 113216,
      "byteStride": 8,
      "name": "floatBufferViews",
      "target": 34962
    },
    {
      "buffer": 0,
      "byteLength": 104640,
      "byteOffset": 148096,
      "byteStride": 12,
      "name": "floatBufferViews",
      "target": 34962
    },
    {
      "buffer": 0,
      "byteLength": 69760,
      "byteOffset": 252736,
      "byteStride": 16,
      "name": "floatBufferViews",
      "target": 34962
    },
    {
      "buffer": 0,
      "byteLength": 2752,
      "byteOffset": 322496,
      "name": "floatBufferViews"
    }
  ],
  "buffers": [
    {
      "byteLength": 325248,
      "uri": "scene.bin"
    }
  ],
  "images": [
    {
      "uri": "textures/Scene_-_Root_baseColor.png"
    },
    {
      "uri": "textures/Scene_-_Root_metallicRoughness.png"
    }
  ],
  "materials": [
    {
      "alphaMode": "BLEND",
      "doubleSided": true,
      "name": "Scene_-_Root",
      "pbrMetallicRoughness": {
        "baseColorTexture": {
          "index": 0
        },
        "metallicFactor": 0.30573915528584805,
        "metallicRoughnessTexture": {
          "index": 1
        }
      }
    }
  ],
  "meshes": [
    {
      "name": "Mesh__0",
      "primitives": [
        {
          "attributes": {
            "JOINTS_0": 5,
            "NORMAL": 1,
            "POSITION": 0,
            "TEXCOORD_0": 2,
            "WEIGHTS_0": 6
          },
          "indices": 3,
          "material": 0,
          "mode": 4
        }
      ]
    }
  ],
  "nodes": [
    {
      "children": [
        1
      ],
      "matrix": [
        1.0,
        0.0,
        0.0,
        0.0,
        0.0,
        2.220446049250313e-16,
        -1.0,
        0.0,
        0.0,
        1.0,
        2.220446049250313e-16,
        0.0,
        0.0,
        0.0,
        0.0,
        1.0
      ],
      "name": "Sketchfab_model"
    },
    {
      "children": [
        2
      ],
      "matrix": [
        0.009999999776482582,
        0.0,
        0.0,
        0.0,
        0.0,
        0.0,
        0.009999999776482582,
        0.0,
        0.0,
        -0.009999999776482582,
        0.0,
        0.0,
        0.0,
        0.0,
        0.0,
        1.0
      ],
      "name": "3D Skin.fbx"
    },
    {
      "children": [
        3
      ],
      "name": "RootNode"
    },
    {
      "children": [
        4
      ],
      "matrix": [
        100.0,
        0.0,
        0.0,
        0.0,
        -0.0,
        -1.629206793918314e-05,
        -99.99999999999868,
        0.0,
        0.0,
        99.99999999999868,
        -1.629206793918314e-05,
        0.0,
        -4.340718533057952e-06,
        -100.07221984863281,
        5.9604644775390625e-06,
        1.0
      ],
      "name": "Armature"
    },
    {
      "children": [
        5,
        49,
        48
      ],
      "name": "Object_4"
    },
    {
      "children": [
        6,
        30,
        32,
        34,
        37,
        40,
        42,
        44,
        46
      ],
      "name": "_rootJoint"
    },
    {
      "children": [
        7,
        10,
        13
      ],
      "name": "Waist_01",
      "rotation": [
        0.7066428065299988,
        -0.025616129860281944,
        0.025616293773055077,
        0.7066425681114197
      ],
      "translation": [
        -0.2306399941444397,
        -0.014717577025294304,
        2.6799867153167725
      ]
    },
    {
      "children": [
        8
      ],
      "name": "Left Femur_02",
      "rotation": [
        0.9729611277580261,
        0.10961482673883438,
        -0.09410156309604645,
        -0.1802118867635727
      ],
      "scale": [
        1.0004453659057617,
        1.0000014305114746,
        1.0
      ],
      "translation": [
        1.2408344218783895e-07,
        -1.2650291125737567e-07,
        -0.49999988079071045
      ]
    },
    {
      "children": [
        9
      ],
      "name": "Left Leg_03",
      "rotation": [
        -1.0520940350033925e-06,
        3.460731434756781e-08,
        0.40658509731292725,
        0.9136129021644592
      ],
      "scale": [
        1.000198245048523,
        0.9998259544372559,
        0.9999999403953552
      ],
      "translation": [
        -5.960464477539063e-08,
        1.5015701055526733,
        -4.470348358154297e-08
      ]
    },
    {
      "name": "Left Leg_end_027",
      "rotation": [
        -5.551115123125783e-17,
        -2.7755575615628914e-17,
        6.938893903907228e-18,
        1.0
      ],
      "translation": [
        -5.551115123125783e-17,
        0.9962391257286072,
        0.0
      ]
    },
    {
      "children": [
        11
      ],
      "name": "Right Femur_04",
      "rotation": [
        0.9575720429420471,
        0.2656562626361847,
        0.08283597230911255,
        0.07497323304414749
      ],
      "scale": [
        1.000177025794983,
        1.0000007152557373,
        0.9999998807907104
      ],
      "translation": [
        -1.0090366231452208e-07,
        4.708598453362356e-07,
        0.49999988079071045
      ]
    },
    {
      "children": [
        12
      ],
      "name": "Right Leg_05",
      "rotation": [
        -1.1162505586526095e-07,
        -7.612697316972117e-08,
        0.42478474974632263,
        0.9052943587303162
      ],
      "scale": [
        1.0000853538513184,
        0.9999234080314636,
        1.0
      ],
      "translation": [
        1.043081283569336e-07,
        1.5015708208084106,
        -5.21540641784668e-08
      ]
    },
    {
      "name": "Right Leg_end_028",
      "rotation": [
        3.469446951953614e-18,
        -1.3877787807814457e-17,
        -1.9949319973733282e-17,
        1.0
      ],
      "translation": [
        0.0,
        0.9962389469146729,
        0.0
      ]
    },
    {
      "children": [
        14,
        16,
        18,
        20,
        25
      ],
      "name": "Chest_06",
      "rotation": [
        -4.3653500370055554e-08,
        -1.0987201193302099e-07,
        -0.07549189031124115,
        0.9971464276313782
      ],
      "scale": [
        0.9999999403953552,
        0.9999999403953552,
        1.0
      ],
      "translation": [
        -1.8212427121966357e-08,
        1.5684067010879517,
        -1.1561788682001861e-07
      ]
    },
    {
      "children": [
        15
      ],
      "name": "Head_07",
      "rotation": [
        1.5680274856322285e-08,
        -1.1102230246251565e-16,
        -2.861938378570579e-17,
        1.0
      ],
      "translation": [
        -3.0016902741181184e-08,
        1.568407654762268,
        4.845331247338436e-08
      ]
    },
    {
      "name": "Head_end_029",
      "rotation": [
        6.617444900424222e-24,
        1.4566497536656473e-41,
        2.201141878869173e-18,
        1.0
      ],
      "translation": [
        -2.220446049250313e-16,
        1.7657060623168945,
        -1.734723475976807e-18
      ]
    },
    {
      "children": [
        17
      ],
      "name": "Left Forearm.002_08",
      "rotation": [
        0.5,
        -0.4999999701976776,
        -0.5,
        -0.5
      ],
      "scale": [
        1.0,
        0.9999999403953552,
        1.0
      ],
      "translation": [
        1.5280406475067139,
        0.6868925094604492,
        -1.3850446939468384
      ]
    },
    {
      "name": "Left Forearm.002_end_030",
      "rotation": [
        -7.702025094449663e-18,
        -0.0,
        0.0,
        1.0
      ],
      "translation": [
        -2.220446049250313e-16,
        0.7103110551834106,
        4.440892098500626e-16
      ]
    },
    {
      "children": [
        19
      ],
      "name": "Right Forearm.002_09",
      "rotation": [
        0.5,
        -0.4999999701976776,
        -0.5,
        -0.5
      ],
      "scale": [
        1.0,
        0.9999999403953552,
        1.0
      ],
      "translation": [
        0.24650786817073822,
        -0.8764947652816772,
        2.177018642425537
      ]
    },
    {
      "name": "Right Forearm.002_end_031",
      "rotation": [
        -7.702025094449663e-18,
        -0.0,
        0.0,
        1.0
      ],
      "translation": [
        0.0,
        0.7103111147880554,
        0.0
      ]
    },
    {
      "children": [
        21
      ],
      "name": "Head.001_010",
      "rotation": [
        0.7680467963218689,
        -0.004597830586135387,
        0.005509263835847378,
        0.6403535604476929
      ],
      "scale": [
        1.0000001192092896,
        1.0,
        1.0
      ],
      "translation": [
        -3.0016902741181184e-08,
        1.568407654762268,
        4.845331247338436e-08
      ]
    },
    {
      "children": [
        22
      ],
      "name": "Right Arm_011",
      "rotation": [
        0.5465215444564819,
        0.1497209370136261,
        0.2101411074399948,
        0.7967049479484558
      ],
      "scale": [
        0.9997893571853638,
        1.000000238418579,
        0.9999999403953552
      ],
      "translation": [
        9.313225746154785e-08,
        1.5245511531829834,
        2.2165477275848389e-07
      ]
    },
    {
      "children": [
        23
      ],
      "name": "Right Forearm_012",
      "rotation": [
        8.685336183589243e-08,
        -1.0098577973849387e-08,
        -0.38686445355415344,
        0.9221366047859192
      ],
      "scale": [
        0.9999138116836548,
        1.0000754594802856,
        0.9999998211860657
      ],
      "translation": [
        8.940696716308594e-08,
        1.4298222064971924,
        -1.4901161193847656e-07
      ]
    },
    {
      "children": [
        24
      ],
      "name": "Right Forearm.001_013",
      "rotation": [
        0.26963934302330017,
        0.6536777019500732,
        -0.2696392834186554,
        0.6536778807640076
      ],
      "scale": [
        1.0000001192092896,
        1.0000001192092896,
        1.0000001192092896
      ],
      "translation": [
        2.220446049250313e-16,
        1.0481218099594116,
        -3.725290298461914e-08
      ]
    },
    {
      "name": "Right Forearm.001_end_032",
      "rotation": [
        2.7755575615628914e-17,
        4.622231866529366e-33,
        1.6653345369377348e-16,
        1.0
      ],
      "translation": [
        0.0,
        0.698197066783905,
        -2.220446049250313e-16
      ]
    },
    {
      "children": [
        26
      ],
      "name": "Head.002_014",
      "rotation": [
        -0.8108717799186707,
        -0.003553310874849558,
        -0.0042571513913571835,
        0.5851975679397583
      ],
      "scale": [
        1.0,
        0.9999999403953552,
        1.0
      ],
      "translation": [
        -3.0016902741181184e-08,
        1.568407654762268,
        4.845331247338436e-08
      ]
    },
    {
      "children": [
        27
      ],
      "name": "Left Arm_015",
      "rotation": [
        -0.31166893243789673,
        -0.017644595354795456,
        -0.3382011651992798,
        0.8877900242805481
      ],
      "scale": [
        0.9997899532318115,
        1.000000238418579,
        1.000000238418579
      ],
      "translation": [
        -1.3224780559539795e-07,
        1.524550437927246,
        3.1851232051849365e-07
      ]
    },
    {
      "children": [
        28
      ],
      "name": "Left Forearm_016",
      "rotation": [
        -4.043185072077904e-06,
        1.1493034079990139e-08,
        -0.7845857739448547,
        0.62002032995224
      ],
      "scale": [
        0.9997939467430115,
        1.0002098083496094,
        1.0
      ],
      "translation": [
        2.9802322387695313e-08,
        1.4298202991485596,
        5.513429641723633e-07
      ]
    },
    {
      "children": [
        29
      ],
      "name": "Left Forearm.001_017",
      "rotation": [
        0.2696393132209778,
        0.653677761554718,
        -0.269639253616333,
        0.6536778807640076
      ],
      "scale": [
        0.9999999403953552,
        0.9999999403953552,
        0.9999999403953552
      ],
      "translation": [
        4.440892098500626e-16,
        1.048122763633728,
        2.9802322387695313e-08
      ]
    },
    {
      "name": "Left Forearm.001_end_033",
      "rotation": [
        0.0,
        -0.0,
        -5.551115123125783e-17,
        1.0
      ],
      "translation": [
        0.0,
        0.6981972455978394,
        -1.1102230246251565e-16
      ]
    },
    {
      "children": [
        31
      ],
      "name": "Left Leg.002_00",
      "rotation": [
        0.0,
        0.0,
        0.7071068286895752,
        0.7071067094802856
      ],
      "scale": [
        0.9999999403953552,
        0.9999999403953552,
        1.0
      ],
      "translation": [
        0.052728354930877686,
        0.4999997317790985,
        0.504050612449646
      ]
    },
    {
      "name": "Left Leg.002_end_034",
      "rotation": [
        4.733165431326071e-30,
        1.3234889800848443e-23,
        -1.3234889800848443e-23,
        1.0
      ],
      "translation": [
        5.551115123125783e-17,
        0.010000020265579224,
        5.551115123125783e-17
      ]
    },
    {
      "children": [
        33
      ],
      "name": "Right Leg.002_018",
      "rotation": [
        1.1156176778569383e-30,
        1.1156178659360344e-30,
        0.7071068286895752,
        0.7071067094802856
      ],
      "translation": [
        0.052728354930877686,
        -0.49999985098838806,
        0.504050612449646
      ]
    },
    {
      "name": "Right Leg.002_end_035",
      "rotation": [
        3.1554436208840472e-30,
        1.3234889800848443e-23,
        -2.6469779601696886e-23,
        1.0
      ],
      "translation": [
        5.551115123125783e-17,
        0.009999990463256836,
        5.551115123125783e-17
      ]
    },
    {
      "children": [
        35
      ],
      "name": "Left Leg.003_019",
      "rotation": [
        0.600260317325592,
        -0.37374818325042725,
        -0.6002599596977234,
        -0.37374836206436157
      ],
      "scale": [
        0.9999998807907104,
        0.9999997615814209,
        0.9999998807907104
      ],
      "translation": [
        -0.39377444982528687,
        1.1841343641281128,
        0.5040502548217773
      ]
    },
    {
      "children": [
        36
      ],
      "name": "Left Leg.001_020",
      "rotation": [
        0.6368062496185303,
        0.28581079840660095,
        0.6467704772949219,
        -0.30737265944480896
      ],
      "scale": [
        0.9999994039535522,
        0.9999995827674866,
        0.9999997615814209
      ],
      "translation": [
        -5.896520747228351e-07,
        1.1353934496582951e-05,
        2.553832700868952e-10
      ]
    },
    {
      "name": "Left Leg.001_end_036",
      "rotation": [
        6.938893903907228e-18,
        -1.925929944387236e-34,
        -2.7755575615628914e-17,
        1.0
      ],
      "translation": [
        2.220446049250313e-16,
        0.6618180274963379,
        -1.1102230246251565e-16
      ]
    },
    {
      "children": [
        38
      ],
      "name": "Right Leg.003_021",
      "rotation": [
        -0.5000001192092896,
        0.49999988079071045,
        0.49999991059303284,
        0.5000001192092896
      ],
      "scale": [
        0.9999998807907104,
        0.9999997615814209,
        0.9999999403953552
      ],
      "translation": [
        0.3421745300292969,
        -0.8248058557510376,
        0.5040501952171326
      ]
    },
    {
      "children": [
        39
      ],
      "name": "Right Leg.001_022",
      "rotation": [
        -0.060478005558252335,
        -0.13086579740047455,
        0.8982701301574707,
        -0.4151232838630676
      ],
      "scale": [
        1.0000001192092896,
        0.9999999403953552,
        0.9999998807907104
      ],
      "translation": [
        -5.034379455537419e-07,
        4.261249159753788e-06,
        -1.42690709026283e-07
      ]
    },
    {
      "name": "Right Leg.001_end_037",
      "rotation": [
        1.3877787807814457e-17,
        -2.7755575615628914e-17,
        -6.938893903907228e-18,
        1.0
      ],
      "translation": [
        0.0,
        0.6618180871009827,
        1.1102230246251565e-16
      ]
    },
    {
      "children": [
        41
      ],
      "name": "Left Femur.001_023",
      "rotation": [
        0.5000000596046448,
        0.4999999403953552,
        0.5,
        -0.4999999701976776
      ],
      "translation": [
        1.5521018505096436,
        1.2828302383422852,
        1.743491530418396
      ]
    },
    {
      "name": "Left Femur.001_end_038",
      "rotation": [
        1.3234889800848443e-23,
        1.3234889800848443e-23,
        1.9848087474158954e-24,
        1.0
      ],
      "translation": [
        -1.1102230246251565e-16,
        1.0208656787872314,
        0.0
      ]
    },
    {
      "children": [
        43
      ],
      "name": "Right Femur.001_024",
      "rotation": [
        -0.5000001192092896,
        -0.49999988079071045,
        -0.4999999701976776,
        0.5000000596046448
      ],
      "translation": [
        1.7314717769622803,
        -1.0073368549346924,
        1.764484167098999
      ]
    },
    {
      "name": "Right Femur.001_end_039",
      "rotation": [
        1.3234889800848443e-23,
        0.0,
        2.74040685925172e-23,
        1.0
      ],
      "translation": [
        -1.1102230246251565e-16,
        1.0208656787872314,
        0.0
      ]
    },
    {
      "children": [
        45
      ],
      "name": "Left Arm.001_025",
      "rotation": [
        -0.5000000596046448,
        0.5,
        0.5,
        0.5000001192092896
      ],
      "scale": [
        0.9999998807907104,
        0.9999998211860657,
        0.9999999403953552
      ],
      "translation": [
        -0.9966456890106201,
        2.458773612976074,
        4.215847015380859
      ]
    },
    {
      "name": "Left Arm.001_end_040",
      "rotation": [
        0.0,
        1.3234889800848443e-23,
        -1.0008157608820478e-23,
        1.0
      ],
      "translation": [
        0.0,
        0.9271532893180847,
        0.0
      ]
    },
    {
      "children": [
        47
      ],
      "name": "Right Arm.001_026",
      "rotation": [
        -0.5000000596046448,
        0.5,
        0.5,
        0.5000001192092896
      ],
      "scale": [
        0.9999998807907104,
        0.9999998211860657,
        0.9999999403953552
      ],
      "translation": [
        -0.7088068723678589,
        -1.5730925798416138,
        4.4859538078308105
      ]
    },
    {
      "name": "Right Arm.001_end_041",
      "rotation": [
        0.0,
        1.3234889800848443e-23,
        -1.0008157608820478e-23,
        1.0
      ],
      "translation": [
        0.0,
        0.9271532893180847,
        -2.220446049250313e-16
      ]
    },
    {
      "matrix": [
        100.00000000000568,
        3.8146971680210005e-06,
        -3.3925024451437157e-13,
        0.0,
        2.8224279236410797e-13,
        -1.6292068542958858e-05,
        -100.00001192093356,
        0.0,
        -3.814697168020827e-06,
        99.99999999999967,
        -1.6292066600792382e-05,
        0.0,
        1.2874596102445087e-05,
        297.718835830688,
        -6.214396670528291e-05,
        1.0
      ],
      "name": "Object_48"
    },
    {
      "mesh": 0,
      "name": "Object_49",
      "skin": 0
    }
  ],
  "samplers": [
    {
      "magFilter": 9729,
      "minFilter": 9987,
      "wrapS": 10497,
      "wrapT": 10497
    }
  ],
  "scene": 0,
  "scenes": [
    {
      "name": "Sketchfab_Scene",
      "nodes": [
        0
      ]
    }
  ],
  "skins": [
    {
      "inverseBindMatrices": 4,
      "joints": [
        5,
        6,
        7,
        8,
        9,
        10,
        11,
        12,
        13,
        14,
        15,
        16,
        17,
        18,
        19,
        20,
        21,
        22,
        23,
        24,
        25,
        26,
        27,
        28,
        29,
        30,
        31,
        32,
        33,
        34,
        35,
        36,
        37,
        38,
        39,
        40,
        41,
        42,
        43,
        44,
        45,
        46,
        47
      ],
      "skeleton": 5
    }
  ],
  "textures": [
    {
      "sampler": 0,
      "source": 0
    },
    {
      "sampler": 0,
      "source": 1
    }
  ]
}
